<?xml version="1.0" standalone="no"?>
<!DOCTYPE svg PUBLIC "-//W3C//DTD SVG 20010904//EN"
 "http://www.w3.org/TR/2001/REC-SVG-20010904/DTD/svg10.dtd">
<svg version="1.0" xmlns="http://www.w3.org/2000/svg"
 width="200.000000pt" height="200.000000pt" viewBox="0 0 200.000000 200.000000"
 preserveAspectRatio="xMidYMid meet">
<metadata>
Created by potrace 1.11, written by Peter Selinger 2001-2013
</metadata>
<g transform="translate(0.000000,200.000000) scale(0.100000,-0.100000)"
fill="#000000" stroke="none">
<path d="M860 1994 c-280 -48 -506 -184 -671 -404 -55 -75 -132 -237 -160
-340 -21 -74 -24 -107 -23 -250 1 -135 5 -179 22 -242 24 -90 90 -248 103
-248 5 0 9 -5 9 -12 0 -10 44 -82 60 -98 3 -3 26 -31 53 -62 123 -147 336
-270 542 -313 690 -145 1313 469 1181 1163 -64 339 -286 607 -616 745 -42 18
-95 33 -176 50 -58 13 -271 20 -324 11z"/>
</g>
</svg>
